<svg width="1677" height="969" viewBox="0 0 1677 969" fill="none" xmlns="http://www.w3.org/2000/svg">
<g filter="url(#filter0_i_8_65)">
<path d="M1165.56 33.5128C1181.06 18.5127 1230.06 13.9522 1261.06 13.0128C1292.06 12.0734 1622.56 63.013 1653.56 79.5129C1684.56 96.0128 1682.56 901.513 1653.56 926.013C1624.56 950.513 1450.56 976.513 1417.06 966.013C1383.56 955.513 1186.06 865.513 1165.56 813.013C1145.06 760.513 1150.06 48.5129 1165.56 33.5128Z" fill="#8FFF00"/>
</g>
<g filter="url(#filter1_i_8_65)">
<path fill-rule="evenodd" clip-rule="evenodd" d="M1233.48 492.462V492.455V492.449V492.443V492.437C1233.23 476.86 1233 461.649 1233 447C1233 429.012 1233.5 409.719 1234.03 389.531C1236.91 278.685 1240.49 140.859 1165.62 43.9999C1081.12 13.9999 802.542 0 621.247 0C446.525 0 222.101 7.64744 109.624 92.4999C2.20395 173.537 0 306.459 0 428C0 556.553 17.1235 795.277 91.1233 846.5C150.623 887.686 456.152 906 621.247 906H623.021C788.023 906.001 1021.98 906.002 1132.5 829.5C1237.56 756.78 1235.35 613.576 1233.48 492.462ZM219.624 132C203.055 132 189.624 145.431 189.624 162V199C189.624 215.569 203.055 229 219.624 229H285.624C302.192 229 315.624 215.569 315.624 199V162C315.624 145.431 302.192 132 285.624 132H219.624ZM183.624 304C183.624 287.431 197.055 274 213.624 274H258.624C275.192 274 288.624 287.431 288.624 304V331C288.624 347.568 275.192 361 258.624 361H213.624C197.055 361 183.624 347.568 183.624 331V304ZM210.624 426C194.055 426 180.624 439.431 180.624 456V482C180.624 498.568 194.055 512 210.624 512H255.624C272.192 512 285.624 498.568 285.624 482V456C285.624 439.431 272.192 426 255.624 426H210.624ZM387.624 157C387.624 140.431 401.055 127 417.624 127H1103.62C1120.19 127 1133.62 140.431 1133.62 157V439C1133.62 455.568 1120.19 469 1103.62 469H417.624C401.055 469 387.624 455.568 387.624 439V157ZM573.182 583.24C557.6 583.669 544.943 595.962 544.058 611.525L535.329 765.016C534.387 781.571 546.759 795.717 563.321 796.522C678.922 802.14 1093.95 819.351 1123.62 778.5C1149.18 743.318 1147.85 644.499 1145.44 595.612C1144.66 579.772 1131.26 567.841 1115.41 568.278L573.182 583.24Z" fill="#8FFF00"/>
</g>
<path d="M509.337 64.65L498.599 89.662V103H494.153V89.662L483.467 64.65H488.147L497.325 86.88H495.453L504.605 64.65H509.337ZM524.495 103.494C521.722 103.494 519.269 102.879 517.137 101.648C515.023 100.4 513.359 98.7013 512.145 96.552C510.949 94.3853 510.351 91.924 510.351 89.168C510.351 86.412 510.949 83.968 512.145 81.836C513.359 79.704 515.023 78.0313 517.137 76.818C519.269 75.6047 521.722 74.998 524.495 74.998C527.269 74.998 529.713 75.6047 531.827 76.818C533.959 78.0313 535.623 79.704 536.819 81.836C538.033 83.968 538.639 86.412 538.639 89.168C538.639 91.924 538.033 94.3853 536.819 96.552C535.623 98.7013 533.959 100.4 531.827 101.648C529.713 102.879 527.269 103.494 524.495 103.494ZM524.495 99.438C526.402 99.438 528.083 99.0133 529.539 98.164C530.995 97.3147 532.131 96.1187 532.945 94.576C533.777 93.0333 534.193 91.2307 534.193 89.168C534.193 87.1053 533.777 85.32 532.945 83.812C532.131 82.2867 530.995 81.1167 529.539 80.302C528.083 79.47 526.402 79.054 524.495 79.054C522.606 79.054 520.925 79.47 519.451 80.302C517.995 81.1167 516.851 82.2867 516.019 83.812C515.205 85.32 514.797 87.1053 514.797 89.168C514.797 91.2307 515.205 93.0333 516.019 94.576C516.851 96.1187 517.995 97.3147 519.451 98.164C520.925 99.0133 522.606 99.438 524.495 99.438ZM555.734 103.494C553.758 103.494 552.112 103.156 550.794 102.48C549.477 101.787 548.428 100.894 547.648 99.802C546.886 98.71 546.34 97.5313 546.01 96.266C545.698 94.9833 545.542 93.7527 545.542 92.574C545.542 91.9153 545.542 91.2393 545.542 90.546C545.542 89.8353 545.542 89.1247 545.542 88.414V75.388H549.988V87.842C549.988 88.4833 549.988 89.116 549.988 89.74C549.988 90.364 549.988 90.9533 549.988 91.508C549.988 92.912 550.179 94.212 550.56 95.408C550.959 96.604 551.644 97.5747 552.614 98.32C553.585 99.048 554.92 99.412 556.618 99.412C558.213 99.412 559.608 98.9353 560.804 97.982C562 97.0113 562.936 95.8067 563.612 94.368C564.288 92.912 564.626 91.4647 564.626 90.026L567.2 91.092C567.2 92.6173 566.932 94.1167 566.394 95.59C565.857 97.046 565.086 98.372 564.08 99.568C563.092 100.764 561.888 101.717 560.466 102.428C559.062 103.139 557.485 103.494 555.734 103.494ZM564.626 103V75.388H569.046V103H564.626ZM617.568 89.662C617.568 91.2047 617.282 92.7907 616.71 94.42C616.138 96.032 615.271 97.5313 614.11 98.918C612.966 100.287 611.519 101.397 609.768 102.246C608.017 103.095 605.963 103.52 603.606 103.52C600.365 103.52 597.609 102.679 595.338 100.998C593.067 99.2993 591.334 96.968 590.138 94.004C588.959 91.04 588.37 87.6513 588.37 83.838C588.37 80.0073 588.959 76.6187 590.138 73.672C591.334 70.708 593.067 68.3853 595.338 66.704C597.609 65.0227 600.365 64.182 603.606 64.182C606.31 64.182 608.615 64.7367 610.522 65.846C612.429 66.9553 613.945 68.368 615.072 70.084C616.199 71.8 616.935 73.568 617.282 75.388C617.473 76.3067 617.568 77.1733 617.568 77.988H613.122C613.122 77.52 613.079 76.9827 612.992 76.376C612.784 74.92 612.281 73.5767 611.484 72.346C610.704 71.098 609.655 70.1013 608.338 69.356C607.021 68.5933 605.443 68.212 603.606 68.212C601.457 68.212 599.576 68.8013 597.964 69.98C596.369 71.1587 595.121 72.9093 594.22 75.232C593.336 77.5547 592.894 80.4233 592.894 83.838C592.894 87.2527 593.336 90.13 594.22 92.47C595.121 94.7927 596.369 96.552 597.964 97.748C599.576 98.9267 601.457 99.516 603.606 99.516C605.149 99.516 606.509 99.2387 607.688 98.684C608.867 98.112 609.855 97.358 610.652 96.422C611.467 95.4687 612.082 94.4113 612.498 93.25C612.914 92.0713 613.122 90.8753 613.122 89.662H617.568ZM633.798 103.52C631.7 103.52 629.863 103.191 628.286 102.532C626.726 101.873 625.512 100.929 624.646 99.698C623.779 98.45 623.346 96.9593 623.346 95.226C623.346 93.4233 623.814 91.924 624.75 90.728C625.686 89.5147 627.003 88.57 628.702 87.894C630.4 87.218 632.376 86.7673 634.63 86.542C638.027 86.1953 640.445 85.8573 641.884 85.528C643.322 85.1813 644.042 84.6267 644.042 83.864C644.042 83.8467 644.042 83.838 644.042 83.838C644.042 83.8207 644.042 83.8033 644.042 83.786C644.042 82.1913 643.392 81.004 642.092 80.224C640.792 79.4267 638.911 79.028 636.45 79.028C633.884 79.028 631.891 79.4787 630.47 80.38C629.048 81.264 628.338 82.7027 628.338 84.696H623.97C623.97 82.6333 624.498 80.8827 625.556 79.444C626.613 77.988 628.078 76.8787 629.95 76.116C631.839 75.3533 634.014 74.972 636.476 74.972C638.729 74.972 640.757 75.3187 642.56 76.012C644.38 76.688 645.818 77.702 646.876 79.054C647.95 80.3887 648.488 82.044 648.488 84.02C648.488 84.384 648.488 84.748 648.488 85.112C648.488 85.4587 648.488 85.814 648.488 86.178V97.8C648.488 98.4067 648.514 98.996 648.566 99.568C648.618 100.14 648.704 100.643 648.826 101.076C648.982 101.596 649.155 102.021 649.346 102.35C649.536 102.662 649.692 102.879 649.814 103H645.368C645.281 102.913 645.151 102.714 644.978 102.402C644.804 102.073 644.64 101.691 644.484 101.258C644.362 100.911 644.267 100.478 644.198 99.958C644.128 99.4207 644.094 98.866 644.094 98.294L644.822 98.788C644.284 99.724 643.496 100.547 642.456 101.258C641.433 101.969 640.194 102.523 638.738 102.922C637.282 103.321 635.635 103.52 633.798 103.52ZM634.5 99.542C636.285 99.542 637.897 99.2733 639.336 98.736C640.774 98.1813 641.918 97.3667 642.768 96.292C643.617 95.2173 644.042 93.8827 644.042 92.288V86.802L645.03 88.466C643.92 88.8993 642.534 89.2547 640.87 89.532C639.223 89.792 637.498 90.0087 635.696 90.182C633.078 90.4247 631.102 90.884 629.768 91.56C628.45 92.236 627.792 93.3713 627.792 94.966C627.792 96.474 628.338 97.618 629.43 98.398C630.522 99.1607 632.212 99.542 634.5 99.542ZM675.599 103V89.766C675.599 88.9687 675.599 88.3187 675.599 87.816C675.599 87.296 675.599 86.802 675.599 86.334C675.599 84.8953 675.357 83.6387 674.871 82.564C674.386 81.4893 673.623 80.6573 672.583 80.068C671.543 79.4787 670.183 79.184 668.501 79.184C667.028 79.184 665.659 79.5653 664.393 80.328C663.145 81.0733 662.14 82.0873 661.377 83.37C660.632 84.6353 660.259 86.0567 660.259 87.634L657.737 86.672C657.737 84.5053 658.266 82.538 659.323 80.77C660.398 79.002 661.819 77.598 663.587 76.558C665.373 75.5007 667.314 74.972 669.411 74.972C671.543 74.972 673.407 75.3793 675.001 76.194C676.596 77.0087 677.827 78.1787 678.693 79.704C679.577 81.212 680.019 83.032 680.019 85.164C680.019 85.9267 680.019 86.7587 680.019 87.66C680.019 88.5613 680.019 89.402 680.019 90.182V103H675.599ZM655.839 103V75.388H660.259V103H655.839ZM723.298 68.55H712.222L713.236 66.028V103H708.816V66.028L710.064 68.55H698.78V64.65H723.298V68.55ZM749.106 103V92.73C749.106 92.2447 749.106 91.6727 749.106 91.014C749.106 90.338 749.106 89.662 749.106 88.986C749.106 88.2927 749.106 87.7033 749.106 87.218C749.106 84.566 748.534 82.564 747.39 81.212C746.263 79.86 744.469 79.184 742.008 79.184C740.361 79.184 738.914 79.5047 737.666 80.146C736.435 80.7873 735.473 81.6627 734.78 82.772C734.086 83.8813 733.74 85.138 733.74 86.542L730.932 85.684C730.932 83.708 731.443 81.914 732.466 80.302C733.506 78.6727 734.918 77.3813 736.704 76.428C738.506 75.4573 740.543 74.972 742.814 74.972C746.124 74.972 748.733 75.9687 750.64 77.962C752.564 79.9553 753.526 82.7113 753.526 86.23C753.526 87.1487 753.526 88.206 753.526 89.402C753.526 90.598 753.526 91.8547 753.526 93.172V103H749.106ZM729.32 103V62.362H733.74V103H729.32ZM761.47 103V75.388H765.838V103H761.47ZM763.68 69.044C762.866 69.044 762.155 68.8187 761.548 68.368C760.959 67.9 760.664 67.2673 760.664 66.47C760.664 65.69 760.959 65.0747 761.548 64.624C762.155 64.156 762.866 63.922 763.68 63.922C764.495 63.922 765.197 64.156 765.786 64.624C766.376 65.0747 766.67 65.69 766.67 66.47C766.67 67.2673 766.376 67.9 765.786 68.368C765.197 68.8187 764.495 69.044 763.68 69.044ZM793.818 103V89.766C793.818 88.9687 793.818 88.3187 793.818 87.816C793.818 87.296 793.818 86.802 793.818 86.334C793.818 84.8953 793.575 83.6387 793.09 82.564C792.605 81.4893 791.842 80.6573 790.802 80.068C789.762 79.4787 788.401 79.184 786.72 79.184C785.247 79.184 783.877 79.5653 782.612 80.328C781.364 81.0733 780.359 82.0873 779.596 83.37C778.851 84.6353 778.478 86.0567 778.478 87.634L775.956 86.672C775.956 84.5053 776.485 82.538 777.542 80.77C778.617 79.002 780.038 77.598 781.806 76.558C783.591 75.5007 785.533 74.972 787.63 74.972C789.762 74.972 791.625 75.3793 793.22 76.194C794.815 77.0087 796.045 78.1787 796.912 79.704C797.796 81.212 798.238 83.032 798.238 85.164C798.238 85.9267 798.238 86.7587 798.238 87.66C798.238 88.5613 798.238 89.402 798.238 90.182V103H793.818ZM774.058 103V75.388H778.478V103H774.058ZM805.949 103V62.362H810.161V87.27L808.887 86.698L822.095 75.388H827.815L814.581 87.036L815.751 84.774L827.919 103H823.161L812.891 87.218L813.801 87.738L809.511 91.456L810.161 89.35V103H805.949ZM849.794 103H845.348V64.65H856.112C859.076 64.65 861.537 65.2047 863.496 66.314C865.454 67.406 866.919 68.8793 867.89 70.734C868.86 72.5887 869.346 74.6513 869.346 76.922C869.346 79.1927 868.843 81.29 867.838 83.214C866.85 85.138 865.368 86.6893 863.392 87.868C861.433 89.0293 859.006 89.61 856.112 89.61H849.794V103ZM849.794 87.972L847.792 85.71H855.566C857.646 85.71 859.37 85.346 860.74 84.618C862.126 83.8727 863.158 82.8413 863.834 81.524C864.527 80.2067 864.874 78.6727 864.874 76.922C864.874 75.154 864.544 73.646 863.886 72.398C863.227 71.15 862.213 70.1967 860.844 69.538C859.474 68.8793 857.715 68.55 855.566 68.55H847.792L849.794 66.028V87.972ZM883.845 103.52C881.747 103.52 879.91 103.191 878.333 102.532C876.773 101.873 875.559 100.929 874.693 99.698C873.826 98.45 873.393 96.9593 873.393 95.226C873.393 93.4233 873.861 91.924 874.797 90.728C875.733 89.5147 877.05 88.57 878.749 87.894C880.447 87.218 882.423 86.7673 884.677 86.542C888.074 86.1953 890.492 85.8573 891.931 85.528C893.369 85.1813 894.089 84.6267 894.089 83.864C894.089 83.8467 894.089 83.838 894.089 83.838C894.089 83.8207 894.089 83.8033 894.089 83.786C894.089 82.1913 893.439 81.004 892.139 80.224C890.839 79.4267 888.958 79.028 886.497 79.028C883.931 79.028 881.938 79.4787 880.517 80.38C879.095 81.264 878.385 82.7027 878.385 84.696H874.017C874.017 82.6333 874.545 80.8827 875.603 79.444C876.66 77.988 878.125 76.8787 879.997 76.116C881.886 75.3533 884.061 74.972 886.523 74.972C888.776 74.972 890.804 75.3187 892.607 76.012C894.427 76.688 895.865 77.702 896.923 79.054C897.997 80.3887 898.535 82.044 898.535 84.02C898.535 84.384 898.535 84.748 898.535 85.112C898.535 85.4587 898.535 85.814 898.535 86.178V97.8C898.535 98.4067 898.561 98.996 898.613 99.568C898.665 100.14 898.751 100.643 898.873 101.076C899.029 101.596 899.202 102.021 899.393 102.35C899.583 102.662 899.739 102.879 899.861 103H895.415C895.328 102.913 895.198 102.714 895.025 102.402C894.851 102.073 894.687 101.691 894.531 101.258C894.409 100.911 894.314 100.478 894.245 99.958C894.175 99.4207 894.141 98.866 894.141 98.294L894.869 98.788C894.331 99.724 893.543 100.547 892.503 101.258C891.48 101.969 890.241 102.523 888.785 102.922C887.329 103.321 885.682 103.52 883.845 103.52ZM884.547 99.542C886.332 99.542 887.944 99.2733 889.383 98.736C890.821 98.1813 891.965 97.3667 892.815 96.292C893.664 95.2173 894.089 93.8827 894.089 92.288V86.802L895.077 88.466C893.967 88.8993 892.581 89.2547 890.917 89.532C889.27 89.792 887.545 90.0087 885.743 90.182C883.125 90.4247 881.149 90.884 879.815 91.56C878.497 92.236 877.839 93.3713 877.839 94.966C877.839 96.474 878.385 97.618 879.477 98.398C880.569 99.1607 882.259 99.542 884.547 99.542ZM917.274 103.52C915.004 103.52 912.924 102.974 911.034 101.882C909.145 100.773 907.637 99.152 906.51 97.02C905.384 94.8707 904.82 92.2533 904.82 89.168C904.82 86.1347 905.392 83.5607 906.536 81.446C907.68 79.3313 909.197 77.728 911.086 76.636C912.976 75.5267 915.038 74.972 917.274 74.972C919.406 74.972 921.4 75.4833 923.254 76.506C925.126 77.5113 926.634 78.9153 927.778 80.718C928.922 82.5207 929.494 84.6093 929.494 86.984C929.494 87.036 929.494 87.088 929.494 87.14C929.494 87.192 929.494 87.244 929.494 87.296L926.322 87.426C926.322 87.374 926.322 87.322 926.322 87.27C926.322 87.2007 926.322 87.14 926.322 87.088C926.322 85.58 925.924 84.2193 925.126 83.006C924.346 81.7927 923.315 80.8307 922.032 80.12C920.75 79.392 919.372 79.028 917.898 79.028C915.437 79.028 913.4 79.86 911.788 81.524C910.176 83.1707 909.37 85.7187 909.37 89.168C909.37 92.6 910.176 95.1567 911.788 96.838C913.418 98.502 915.454 99.334 917.898 99.334C919.441 99.334 920.845 98.9613 922.11 98.216C923.393 97.4707 924.416 96.474 925.178 95.226C925.941 93.9607 926.322 92.548 926.322 90.988L929.494 91.066C929.494 93.4233 928.948 95.5467 927.856 97.436C926.764 99.308 925.291 100.79 923.436 101.882C921.599 102.974 919.545 103.52 917.274 103.52ZM926.322 103V62.362H930.768V103H926.322Z" fill="#000AFF"/>
<defs>
<filter id="filter0_i_8_65" x="1142" y="13" width="534.071" height="955.406" filterUnits="userSpaceOnUse" color-interpolation-filters="sRGB">
<feFlood flood-opacity="0" result="BackgroundImageFix"/>
<feBlend mode="normal" in="SourceGraphic" in2="BackgroundImageFix" result="shape"/>
<feColorMatrix in="SourceAlpha" type="matrix" values="0 0 0 0 0 0 0 0 0 0 0 0 0 0 0 0 0 0 127 0" result="hardAlpha"/>
<feOffset dx="-10"/>
<feGaussianBlur stdDeviation="15"/>
<feComposite in2="hardAlpha" operator="arithmetic" k2="-1" k3="1"/>
<feColorMatrix type="matrix" values="0 0 0 0 0 0 0 0 0 0 0 0 0 0 0 0 0 0 0.25 0"/>
<feBlend mode="normal" in2="shape" result="effect1_innerShadow_8_65"/>
</filter>
<filter id="filter1_i_8_65" x="0" y="0" width="1245.21" height="906" filterUnits="userSpaceOnUse" color-interpolation-filters="sRGB">
<feFlood flood-opacity="0" result="BackgroundImageFix"/>
<feBlend mode="normal" in="SourceGraphic" in2="BackgroundImageFix" result="shape"/>
<feColorMatrix in="SourceAlpha" type="matrix" values="0 0 0 0 0 0 0 0 0 0 0 0 0 0 0 0 0 0 127 0" result="hardAlpha"/>
<feOffset dx="10"/>
<feGaussianBlur stdDeviation="10"/>
<feComposite in2="hardAlpha" operator="arithmetic" k2="-1" k3="1"/>
<feColorMatrix type="matrix" values="0 0 0 0 0 0 0 0 0 0 0 0 0 0 0 0 0 0 0.25 0"/>
<feBlend mode="multiply" in2="shape" result="effect1_innerShadow_8_65"/>
</filter>
</defs>
</svg>
